<svg id="svg" version="1.1" xmlns="http://www.w3.org/2000/svg" xmlns:xlink="http://www.w3.org/1999/xlink" width="400" height="400" viewBox="0, 0, 400,400"><g id="svgg"><path id="path0" d="M160.800 110.804 C 152.176 112.724,145.798 114.422,141.000 116.074 C 140.340 116.301,138.720 116.814,137.400 117.215 C 134.826 117.995,134.620 118.066,128.699 120.205 C 121.539 122.791,117.084 124.902,116.126 126.163 C 113.894 129.100,112.533 131.199,109.362 136.600 C 107.380 139.975,106.653 141.268,104.191 145.800 C 103.354 147.340,102.450 148.870,102.182 149.200 C 101.914 149.530,101.562 150.250,101.400 150.800 C 101.238 151.350,100.878 152.070,100.599 152.400 C 100.321 152.730,99.522 154.350,98.825 156.000 C 98.127 157.650,97.137 159.900,96.626 161.000 C 96.114 162.100,94.936 164.980,94.008 167.400 C 93.081 169.820,91.999 172.520,91.605 173.400 C 91.211 174.280,90.763 175.720,90.609 176.600 C 90.455 177.480,90.160 178.404,89.955 178.652 C 89.749 178.901,89.309 180.151,88.976 181.430 C 88.642 182.708,88.220 183.944,88.037 184.177 C 87.854 184.410,87.585 185.320,87.438 186.200 C 87.292 187.080,86.843 188.790,86.441 190.000 C 82.319 202.409,79.717 225.090,80.155 244.800 C 80.515 260.982,80.562 261.124,86.849 265.000 C 87.206 265.220,88.636 266.165,90.028 267.100 C 91.420 268.035,92.771 268.800,93.031 268.800 C 93.290 268.800,93.732 269.077,94.012 269.415 C 94.293 269.753,95.620 270.660,96.961 271.431 C 98.302 272.202,99.670 272.994,100.000 273.191 C 102.216 274.515,109.985 278.800,110.170 278.800 C 110.380 278.800,113.473 280.163,117.400 281.985 C 120.516 283.431,122.631 284.355,125.200 285.391 C 126.630 285.969,128.156 286.639,128.591 286.881 C 129.026 287.123,130.196 287.548,131.191 287.826 C 132.186 288.104,133.990 288.689,135.200 289.127 C 136.410 289.565,138.346 290.201,139.503 290.541 L 141.605 291.158 143.503 288.813 C 145.190 286.727,146.276 285.131,149.490 280.016 C 149.979 279.237,151.069 277.250,151.912 275.600 C 152.755 273.950,153.695 272.208,154.001 271.728 C 154.693 270.644,153.534 269.489,151.000 268.736 C 150.120 268.474,149.220 268.128,149.000 267.967 C 148.281 267.442,138.088 262.400,137.739 262.398 C 137.553 262.397,136.890 261.988,136.267 261.490 L 135.135 260.583 136.267 259.309 C 138.254 257.073,141.058 256.822,143.877 258.626 C 144.359 258.935,145.439 259.437,146.277 259.741 C 159.700 264.614,161.366 265.117,170.600 267.081 C 173.240 267.643,176.030 268.179,176.800 268.273 C 177.570 268.367,180.900 268.824,184.200 269.288 C 192.306 270.427,207.581 270.532,214.400 269.494 C 216.930 269.109,220.350 268.623,222.000 268.413 C 227.625 267.699,240.010 264.871,243.274 263.556 C 244.305 263.140,245.480 262.800,245.885 262.800 C 246.290 262.800,246.977 262.563,247.411 262.274 C 247.845 261.985,249.008 261.514,249.997 261.229 C 250.985 260.943,252.150 260.460,252.586 260.155 C 253.021 259.850,253.715 259.600,254.127 259.600 C 254.539 259.600,255.372 259.247,255.978 258.816 C 258.723 256.861,261.730 257.054,263.737 259.314 L 264.875 260.594 263.737 261.467 C 262.331 262.546,254.147 266.800,253.477 266.800 C 253.208 266.800,252.361 267.134,251.594 267.541 C 250.827 267.949,249.551 268.494,248.759 268.753 C 247.966 269.012,246.941 269.624,246.480 270.115 L 245.643 271.006 246.726 273.247 C 247.322 274.480,248.006 275.738,248.247 276.044 C 248.488 276.350,249.243 277.633,249.926 278.895 C 250.609 280.158,251.895 282.175,252.784 283.378 C 253.673 284.581,254.400 285.677,254.400 285.813 C 254.400 286.133,257.908 290.696,258.376 290.985 C 258.572 291.107,259.243 291.011,259.866 290.773 C 260.490 290.535,261.900 290.087,263.000 289.777 C 266.542 288.779,270.843 287.147,274.640 285.360 C 275.762 284.832,277.022 284.396,277.440 284.391 C 277.858 284.386,278.650 284.030,279.200 283.600 C 279.750 283.170,280.524 282.814,280.920 282.809 C 281.317 282.804,283.027 282.094,284.720 281.232 C 286.414 280.370,289.600 278.780,291.800 277.700 C 295.343 275.961,296.958 275.077,299.815 273.316 C 300.247 273.050,301.770 272.168,303.200 271.355 C 306.900 269.253,317.271 262.366,318.079 261.475 C 321.748 257.427,319.897 213.351,315.346 196.400 C 315.021 195.190,314.594 193.390,314.397 192.400 C 313.702 188.909,311.890 182.978,310.365 179.200 C 309.965 178.210,309.517 176.770,309.370 176.000 C 309.223 175.230,308.764 173.932,308.351 173.116 C 307.938 172.300,307.600 171.305,307.600 170.905 C 307.600 170.505,307.354 169.823,307.054 169.389 C 306.754 168.955,306.373 168.150,306.209 167.600 C 306.045 167.050,305.677 166.060,305.391 165.400 C 305.105 164.740,304.227 162.670,303.441 160.800 C 302.655 158.930,301.469 156.410,300.806 155.200 C 300.143 153.990,299.310 152.370,298.954 151.600 C 298.599 150.830,297.969 149.722,297.554 149.138 C 297.139 148.554,296.800 147.880,296.800 147.639 C 296.800 147.398,295.630 145.110,294.200 142.555 C 292.770 139.999,291.600 137.841,291.600 137.758 C 291.600 137.623,290.149 135.303,286.684 129.900 C 286.014 128.855,285.328 128.000,285.160 128.000 C 284.991 128.000,284.738 127.634,284.596 127.186 C 284.022 125.377,282.515 124.504,274.800 121.507 C 267.941 118.842,265.522 117.971,263.200 117.332 C 261.990 116.999,260.811 116.571,260.580 116.381 C 260.349 116.191,259.359 115.913,258.380 115.763 C 257.401 115.613,256.240 115.304,255.800 115.076 C 254.922 114.622,249.815 113.251,244.200 111.963 C 234.263 109.684,233.988 109.712,232.137 113.200 C 231.379 114.630,230.523 116.160,230.237 116.600 C 229.950 117.040,229.573 117.850,229.399 118.400 C 229.225 118.950,228.645 120.095,228.108 120.944 L 227.134 122.489 224.667 122.277 C 210.776 121.082,206.377 120.823,200.000 120.823 C 195.930 120.823,189.270 121.102,185.200 121.444 C 181.130 121.785,176.720 122.149,175.400 122.253 L 173.000 122.441 172.102 120.920 C 170.782 118.686,169.423 116.145,167.926 113.116 L 166.600 110.433 164.400 110.462 C 163.190 110.479,161.570 110.632,160.800 110.804 M169.206 188.076 C 174.322 190.699,177.489 194.397,180.617 201.398 C 181.490 203.352,181.898 211.585,181.271 214.600 C 179.790 221.726,175.653 227.367,169.000 231.332 L 166.200 233.000 160.379 233.000 C 150.244 233.000,144.055 228.185,139.553 216.800 C 138.573 214.319,138.800 204.757,139.913 201.661 C 144.706 188.332,157.832 182.244,169.206 188.076 M244.112 186.383 C 257.768 188.620,265.912 207.609,258.922 220.915 C 258.600 221.529,258.110 222.467,257.834 222.999 C 254.639 229.158,247.815 232.972,240.000 232.969 L 234.200 232.966 231.400 231.521 C 228.355 229.949,223.368 225.280,222.085 222.800 C 221.687 222.030,221.171 221.040,220.938 220.600 C 220.705 220.160,220.219 219.234,219.859 218.541 C 217.519 214.047,218.139 203.768,221.086 198.200 C 221.435 197.540,221.971 196.516,222.278 195.924 C 225.896 188.934,235.108 184.909,244.112 186.383 " stroke="none" fill="#fafbfa" fill-rule="evenodd"></path><path id="path1" d="M0.000 200.000 L 0.000 400.000 200.000 400.000 L 400.000 400.000 400.000 200.000 L 400.000 0.000 200.000 0.000 L 0.000 0.000 0.000 200.000 M167.926 113.116 C 169.423 116.145,170.782 118.686,172.102 120.920 L 173.000 122.441 175.400 122.253 C 176.720 122.149,181.130 121.785,185.200 121.444 C 189.270 121.102,195.930 120.823,200.000 120.823 C 206.377 120.823,210.776 121.082,224.667 122.277 L 227.134 122.489 228.108 120.944 C 228.645 120.095,229.225 118.950,229.399 118.400 C 229.573 117.850,229.950 117.040,230.237 116.600 C 230.523 116.160,231.379 114.630,232.137 113.200 C 233.988 109.712,234.263 109.684,244.200 111.963 C 249.815 113.251,254.922 114.622,255.800 115.076 C 256.240 115.304,257.401 115.613,258.380 115.763 C 259.359 115.913,260.349 116.191,260.580 116.381 C 260.811 116.571,261.990 116.999,263.200 117.332 C 265.522 117.971,267.941 118.842,274.800 121.507 C 282.515 124.504,284.022 125.377,284.596 127.186 C 284.738 127.634,284.991 128.000,285.160 128.000 C 285.328 128.000,286.014 128.855,286.684 129.900 C 290.149 135.303,291.600 137.623,291.600 137.758 C 291.600 137.841,292.770 139.999,294.200 142.555 C 295.630 145.110,296.800 147.398,296.800 147.639 C 296.800 147.880,297.139 148.554,297.554 149.138 C 297.969 149.722,298.599 150.830,298.954 151.600 C 299.310 152.370,300.143 153.990,300.806 155.200 C 301.469 156.410,302.655 158.930,303.441 160.800 C 304.227 162.670,305.105 164.740,305.391 165.400 C 305.677 166.060,306.045 167.050,306.209 167.600 C 306.373 168.150,306.754 168.955,307.054 169.389 C 307.354 169.823,307.600 170.505,307.600 170.905 C 307.600 171.305,307.938 172.300,308.351 173.116 C 308.764 173.932,309.223 175.230,309.370 176.000 C 309.517 176.770,309.965 178.210,310.365 179.200 C 311.890 182.978,313.702 188.909,314.397 192.400 C 314.594 193.390,315.021 195.190,315.346 196.400 C 319.897 213.351,321.748 257.427,318.079 261.475 C 317.271 262.366,306.900 269.253,303.200 271.355 C 301.770 272.168,300.247 273.050,299.815 273.316 C 296.958 275.077,295.343 275.961,291.800 277.700 C 289.600 278.780,286.414 280.370,284.720 281.232 C 283.027 282.094,281.317 282.804,280.920 282.809 C 280.524 282.814,279.750 283.170,279.200 283.600 C 278.650 284.030,277.858 284.386,277.440 284.391 C 277.022 284.396,275.762 284.832,274.640 285.360 C 270.843 287.147,266.542 288.779,263.000 289.777 C 261.900 290.087,260.490 290.535,259.866 290.773 C 259.243 291.011,258.572 291.107,258.376 290.985 C 257.908 290.696,254.400 286.133,254.400 285.813 C 254.400 285.677,253.673 284.581,252.784 283.378 C 251.895 282.175,250.609 280.158,249.926 278.895 C 249.243 277.633,248.488 276.350,248.247 276.044 C 248.006 275.738,247.322 274.480,246.726 273.247 L 245.643 271.006 246.480 270.115 C 246.941 269.624,247.966 269.012,248.759 268.753 C 249.551 268.494,250.827 267.949,251.594 267.541 C 252.361 267.134,253.208 266.800,253.477 266.800 C 254.147 266.800,262.331 262.546,263.737 261.467 L 264.875 260.594 263.737 259.314 C 261.730 257.054,258.723 256.861,255.978 258.816 C 255.372 259.247,254.539 259.600,254.127 259.600 C 253.715 259.600,253.021 259.850,252.586 260.155 C 252.150 260.460,250.985 260.943,249.997 261.229 C 249.008 261.514,247.845 261.985,247.411 262.274 C 246.977 262.563,246.290 262.800,245.885 262.800 C 245.480 262.800,244.305 263.140,243.274 263.556 C 240.010 264.871,227.625 267.699,222.000 268.413 C 220.350 268.623,216.930 269.109,214.400 269.494 C 207.581 270.532,192.306 270.427,184.200 269.288 C 180.900 268.824,177.570 268.367,176.800 268.273 C 176.030 268.179,173.240 267.643,170.600 267.081 C 161.366 265.117,159.700 264.614,146.277 259.741 C 145.439 259.437,144.359 258.935,143.877 258.626 C 141.058 256.822,138.254 257.073,136.267 259.309 L 135.135 260.583 136.267 261.490 C 136.890 261.988,137.553 262.397,137.739 262.398 C 138.088 262.400,148.281 267.442,149.000 267.967 C 149.220 268.128,150.120 268.474,151.000 268.736 C 153.534 269.489,154.693 270.644,154.001 271.728 C 153.695 272.208,152.755 273.950,151.912 275.600 C 151.069 277.250,149.979 279.237,149.490 280.016 C 146.276 285.131,145.190 286.727,143.503 288.813 L 141.605 291.158 139.503 290.541 C 138.346 290.201,136.410 289.565,135.200 289.127 C 133.990 288.689,132.186 288.104,131.191 287.826 C 130.196 287.548,129.026 287.123,128.591 286.881 C 128.156 286.639,126.630 285.969,125.200 285.391 C 122.631 284.355,120.516 283.431,117.400 281.985 C 113.473 280.163,110.380 278.800,110.170 278.800 C 109.985 278.800,102.216 274.515,100.000 273.191 C 99.670 272.994,98.302 272.202,96.961 271.431 C 95.620 270.660,94.293 269.753,94.012 269.415 C 93.732 269.077,93.290 268.800,93.031 268.800 C 92.771 268.800,91.420 268.035,90.028 267.100 C 88.636 266.165,87.206 265.220,86.849 265.000 C 80.562 261.124,80.515 260.982,80.155 244.800 C 79.717 225.090,82.319 202.409,86.441 190.000 C 86.843 188.790,87.292 187.080,87.438 186.200 C 87.585 185.320,87.854 184.410,88.037 184.177 C 88.220 183.944,88.642 182.708,88.976 181.430 C 89.309 180.151,89.749 178.901,89.955 178.652 C 90.160 178.404,90.455 177.480,90.609 176.600 C 90.763 175.720,91.211 174.280,91.605 173.400 C 91.999 172.520,93.081 169.820,94.008 167.400 C 94.936 164.980,96.114 162.100,96.626 161.000 C 97.137 159.900,98.127 157.650,98.825 156.000 C 99.522 154.350,100.321 152.730,100.599 152.400 C 100.878 152.070,101.238 151.350,101.400 150.800 C 101.562 150.250,101.914 149.530,102.182 149.200 C 102.450 148.870,103.354 147.340,104.191 145.800 C 106.653 141.268,107.380 139.975,109.362 136.600 C 112.533 131.199,113.894 129.100,116.126 126.163 C 117.084 124.902,121.539 122.791,128.699 120.205 C 134.620 118.066,134.826 117.995,137.400 117.215 C 138.720 116.814,140.340 116.301,141.000 116.074 C 145.182 114.634,149.138 113.538,156.000 111.918 C 161.767 110.557,162.136 110.493,164.400 110.462 L 166.600 110.433 167.926 113.116 M155.576 186.376 C 149.057 187.577,142.771 193.712,139.913 201.661 C 138.800 204.757,138.573 214.319,139.553 216.800 C 144.055 228.185,150.244 233.000,160.379 233.000 L 166.200 233.000 169.000 231.332 C 177.981 225.980,181.909 218.589,181.508 207.798 C 181.325 202.858,181.255 202.588,178.853 197.636 C 174.848 189.375,165.042 184.632,155.576 186.376 M236.400 186.264 C 230.908 187.119,224.603 191.431,222.278 195.924 C 221.971 196.516,221.435 197.540,221.086 198.200 C 218.139 203.768,217.519 214.047,219.859 218.541 C 220.219 219.234,220.705 220.160,220.938 220.600 C 221.171 221.040,221.687 222.030,222.085 222.800 C 223.368 225.280,228.355 229.949,231.400 231.521 L 234.200 232.966 240.000 232.969 C 247.815 232.972,254.639 229.158,257.834 222.999 C 258.110 222.467,258.600 221.529,258.922 220.915 C 267.696 204.214,254.227 183.492,236.400 186.264 " stroke="none" fill="#3ba45b" fill-rule="evenodd"></path></g></svg>